<?xml version="1.0" encoding="utf-8"?>
<!-- Svg Vector Icons : http://www.onlinewebfonts.com/icon -->
<!DOCTYPE svg PUBLIC "-//W3C//DTD SVG 1.1//EN" "http://www.w3.org/Graphics/SVG/1.1/DTD/svg11.dtd">
<svg version="1.1" xmlns="http://www.w3.org/2000/svg" xmlns:xlink="http://www.w3.org/1999/xlink" x="0px" y="0px" fill="#406eff" viewBox="0 0 1000 1000" enable-background="new 0 0 1000 1000" xml:space="preserve">
<metadata> Svg Vector Icons : http://www.onlinewebfonts.com/icon </metadata>
<g><path d="M600.8,682.5h-46.2c0,0-5.9-3.7-5.9-14v-96.9l-52.1,0.7V680c0,0,5,28.5,42.8,28.5h87.5V578.2h-26.1L600.8,682.5L600.8,682.5z M444.4,578.2h-48.9c0,0-45.1-1.8-60.9,49.4c-5.5,34.1,4.9,47.1,6.7,51.5c1.8,4.3,16.4,29.5,53,29.5h76.2V512.4l-26.1-0.6V578.2z M444.4,682.5h-38.5c0,0-23.7-0.7-31-28c-3.7-12.2,0.6-23.9,2.5-29.4c1.8-5.5,9.7-20.8,26.1-20.8h41V682.5z M500,10C229.4,10,10,229.4,10,500c0,270.6,219.4,490,490,490s490-219.4,490-490C990,229.4,770.6,10,500,10z M529.9,270c3.9-35.6,46.5-90.3,80.7-82.5c34.1,7.8,65.1,52.9,58.8,91.8c-6.2,38.9-37.1,90.3-85.2,84C536.1,357.2,525.3,313.6,529.9,270z M429.1,172c36,0,65.1,41.4,65.1,92.6c0,51.2-29.1,92.7-65.1,92.7c-35.9,0-65.1-41.4-65.1-92.7C364,213.4,393.2,172,429.1,172z M226,391.4c0,0,7.7-76.2,60.5-80.9c41.9-3.6,72.8,42.3,76,68.5c2,17,10.8,94.9-54.3,108.9C243.1,501.9,218.9,426.6,226,391.4z M722.2,719.7c-35.7,84.1-166,40.4-166,40.4s-48.1-15.5-103.8-3.1c-55.8,12.5-103.8,7.7-103.8,7.7s-65.2,1.6-83.8-80.8c-18.6-82.5,65.1-127.7,71.4-135.4c6.2-7.8,49.6-37.3,77.5-84c28-46.7,111.7-84,170.6,7.7c43.4,62.3,117.9,119.9,117.9,119.9S757.8,635.7,722.2,719.7z M711.3,528.3c-71.4,1.6-74.4-48.2-74.4-83.9c0-37.4,7.7-90.3,65.2-90.3c57.4,0,72.8,56.1,72.8,74.7C774.9,447.4,782.7,526.7,711.3,528.3z"/></g>
</svg>