<?xml version="1.0" encoding="utf-8"?>
<!-- Svg Vector Icons : http://www.onlinewebfonts.com/icon -->
<!DOCTYPE svg PUBLIC "-//W3C//DTD SVG 1.1//EN" "http://www.w3.org/Graphics/SVG/1.1/DTD/svg11.dtd">
<svg version="1.1" xmlns="http://www.w3.org/2000/svg" xmlns:xlink="http://www.w3.org/1999/xlink" x="0px" y="0px" fill="#406eff" viewBox="0 0 1000 1000" enable-background="new 0 0 1000 1000" xml:space="preserve">
<metadata> Svg Vector Icons : http://www.onlinewebfonts.com/icon </metadata>
<g><path d="M363.9,418.3h272.2v108.9H363.9V418.3z"/><path d="M500,10C229.4,10,10,229.4,10,500c0,270.6,219.4,490,490,490c270.6,0,490-219.4,490-490C990,229.4,770.6,10,500,10z M282.2,255h435.5v54.5H282.2V255z M690.5,363.9v217.8H309.5V363.9H690.5z M745,745H255v-54.5h133.2c-13.1-27.2-30.2-56.6-51.3-88.3l51.2-20c20.4,30.1,38.5,53.9,54.6,108.4h97c19.2-27.2,36.1-68.9,50.5-108.7l55.7,20.6c-14.6,33.6-30.3,60.8-47,88.1l145.9,0V745z"/></g>
</svg>