<?xml version="1.0" encoding="utf-8"?>
<!-- Svg Vector Icons : http://www.onlinewebfonts.com/icon -->
<!DOCTYPE svg PUBLIC "-//W3C//DTD SVG 1.1//EN" "http://www.w3.org/Graphics/SVG/1.1/DTD/svg11.dtd">
<svg version="1.1" xmlns="http://www.w3.org/2000/svg" xmlns:xlink="http://www.w3.org/1999/xlink" x="0px" y="0px" fill="#406eff" viewBox="0 0 1000 1000" enable-background="new 0 0 1000 1000" xml:space="preserve">
<metadata> Svg Vector Icons : http://www.onlinewebfonts.com/icon </metadata>
<g><path d="M885.1,749.5c-12,17.3-34.7,22.8-55.3,25.6c-83.5,11-157.8,16.7-236,19c-31.2,0.8-62.4,1.2-93.6,1.1c-0.4,0-0.7,0-1,0c-0.4,0-63.5-0.3-94.6-1.1c-78.3-2.2-152.5-8-236-19c-20.7-2.8-43.4-8.3-55.3-25.6c-7.5-10.8-10.4-27.1-10.7-33l-91.7-0.1c0,17.1,4.2,47.1,15.2,68.7c7.4,14.3,20.1,28.7,34.3,37.4c52.4,32.3,328,43.9,376.9,44.7c19,0.2,61.7,0.3,62,0.3h1c21.9,0.1,42-0.1,61-0.3c48.8-0.7,324.5-12.3,376.9-44.7c14.2-8.7,26.9-23.1,34.3-37.4c11-21.6,15.2-51.6,15.2-68.7l-91.7,0.1C895.6,722.4,892.6,738.6,885.1,749.5z"/><path d="M17.6,686.6h76c4.2,0,7.6-3.1,7.6-7V432.2c0-3.8-3.4-6.9-7.6-6.9h-76c-4.2,0-7.6,3.1-7.6,6.9v247.4C10,683.5,13.4,686.6,17.6,686.6z"/><path d="M982.4,312.4h-76c-4.1,0-7.6,3.1-7.6,6.9v360.3c0,3.9,3.4,7,7.6,7h76c4.2,0,7.6-3.1,7.6-7V319.3C990,315.5,986.6,312.4,982.4,312.4z"/><path d="M17.6,395.6h76c4.2,0,7.6-3.1,7.6-6.9v-69.4c0-3.8-3.4-6.9-7.6-6.9h-76c-4.2,0-7.6,3.1-7.6,6.9v69.4C10,392.5,13.4,395.6,17.6,395.6z"/><path d="M113.1,250.5c12-17.3,34.7-22.8,55.3-25.6c83.5-11,157.8-16.8,236-18.9c31.1-0.8,94.3-1.1,94.6-1.1c0.3,0,0.7-0.1,1-0.1c31.2,0,62.4,0.4,93.6,1.2c78.3,2.2,152.5,7.9,236,18.9c20.7,2.8,43.3,8.3,55.3,25.6c7.5,10.8,10.5,27.1,10.8,33l91.7,0.2c0-17.1-4.2-47.1-15.2-68.7c-7.4-14.3-20.1-28.7-34.3-37.4c-52.4-32.3-328-43.9-376.9-44.7c-19.1-0.2-39.1-0.3-61-0.3h-1c-0.4,0-43,0.1-62,0.3c-48.9,0.7-324.5,12.4-376.9,44.7C46,186.3,33.3,200.6,25.9,215c-11,21.6-15.2,51.6-15.2,68.7l91.7-0.2C102.7,277.6,105.7,261.3,113.1,250.5z"/><path d="M850.7,312.4L850.7,312.4l-77.9-0.1c-3.1,0-5.7,1.7-6.9,4.1c-0.1,0.2-0.1,0.3-0.2,0.4c0,0-40,113.9-43.8,133.4c-3.8-19.5-43.7-133.4-43.7-133.4c-0.1-0.1-0.1-0.3-0.2-0.4h0c-1.2-2.5-3.8-4.1-6.9-4.1h-78l0,0.1c-3.8,0.3-6.8,3.2-6.8,6.9c0,0.8,0.2,1.6,0.5,2.3l-0.1,0.1l89.9,227.4v130.6c0,3.8,3.4,6.9,7.6,6.9h75.6c4.2,0,7.6-3.1,7.6-6.9c0-0.1,0-0.2,0-0.3V549.1l89.8-227.4l0-0.1c0.3-0.7,0.5-1.5,0.5-2.3C857.6,315.6,854.5,312.8,850.7,312.4z"/><path d="M465.4,312.4c-4.2,0-7.6,3.1-7.6,6.9v360.3c0,3.9,3.4,6.9,7.6,6.9h75.9c4.2,0,7.7-3.1,7.7-6.9V319.3c0-3.8-3.4-6.9-7.7-6.9H465.4z"/><path d="M401.3,689.1L401.3,689.1l-32.9,0c-8.7,0-13.4-1.2-14-3.7c13.8-4.7,25-11.4,33.6-20.3c8.2-8.5,12.2-19.3,12.2-32.5V366.1c0-12.8-3.6-23.4-10.7-31.5c-7.1-8.5-16.6-15.1-28.3-19.8c-25.3-8.9-53-13.1-83.4-12.8c-14,0-28,0.9-42.1,2.6c-14.3,2.3-27.1,5.6-38.6,10.2c-11.8,4.7-21.2,11.2-28.3,19.8c-8.4,8.1-12.5,18.6-12.5,31.4v266.6c0.6,24,14.4,40.6,41.3,49.6c11.7,4.7,24.7,8.1,39.2,10.1c14.2,2.6,28.4,3.9,42.6,3.9c10.7,0,20.9-0.8,30.4-2.4c0.6,10.4,4.2,18.9,10.9,25.8c6.4,7.1,20.3,10.8,41.3,11.2h39.1c4.2,0,7.7-3.1,7.7-7v-27.8C409,692.2,405.5,689.1,401.3,689.1z M309,627.4c0,6.1-1.4,13.3-6.1,17.9c-5.9,5.7-16.1,6.1-24.1,5.8c-10.1,0.3-17.5-1.3-22.5-4.9c-5.8-3.1-8.7-9.4-8.7-18.7V370.7c0-9.2,2.9-15.6,8.7-19c4.9-3,12.4-4.5,22.5-4.5c7.2,0,16.3,0.4,22.6,4.1c6.9,4,7.6,12.6,7.6,19.4C309,370.7,309,626.8,309,627.4z"/></g>
</svg>