<?xml version="1.0" encoding="UTF-8" standalone="no"?>
<!-- Svg Vector Icons : http://www.onlinewebfonts.com/icon -->

<svg
   version="1.1"
   x="0px"
   y="0px"
   viewBox="0 0 1000 1000"
   enable-background="new 0 0 1000 1000"
   xml:space="preserve"
   id="svg20"
   sodipodi:docname="jd.svg"
   inkscape:version="1.2.1 (9c6d41e410, 2022-07-14)"
   xmlns:inkscape="http://www.inkscape.org/namespaces/inkscape"
   xmlns:sodipodi="http://sodipodi.sourceforge.net/DTD/sodipodi-0.dtd"
   xmlns="http://www.w3.org/2000/svg"
   xmlns:svg="http://www.w3.org/2000/svg"><defs
   id="defs24" /><sodipodi:namedview
   id="namedview22"
   pagecolor="#ffffff"
   bordercolor="#666666"
   borderopacity="1.0"
   inkscape:showpageshadow="2"
   inkscape:pageopacity="0.0"
   inkscape:pagecheckerboard="0"
   inkscape:deskcolor="#d1d1d1"
   showgrid="false"
   inkscape:zoom="0.829"
   inkscape:cx="500"
   inkscape:cy="404.10133"
   inkscape:window-width="1920"
   inkscape:window-height="1009"
   inkscape:window-x="-8"
   inkscape:window-y="-8"
   inkscape:window-maximized="1"
   inkscape:current-layer="svg20" />
<metadata
   id="metadata14"> Svg Vector Icons : http://www.onlinewebfonts.com/icon </metadata>

<circle
   style="display:inline;fill:none;fill-opacity:1;stroke:#406eff;stroke-width:179.73;stroke-dasharray:none;paint-order:markers stroke fill;stroke-opacity:1"
   id="path359"
   cx="500.09891"
   cy="500.0314"
   r="386.09116" /><g
   id="g18"
   transform="matrix(0.71566431,0,0,0.71566431,138.73963,143.00176)"
   style="display:inline"><path
     d="m 990,865.2 c 0,67 -55.1,121.7 -122.5,121.7 h -735 C 65.1,987 10,932.2 10,865.2 V 134.8 C 10,67.8 65.1,13 132.5,13 h 735 C 934.9,13 990,67.8 990,134.8 Z M 349,235.7 c -6.9,0 -12.6,5.6 -12.6,12.5 v 328.6 c -0.3,49 -15.3,87.2 -44.5,113.6 -54.2,49 -140.8,42.5 -142.3,42.4 -6.9,-0.6 -13,4.5 -13.6,11.3 -0.6,6.9 4.5,12.9 11.4,13.5 0.9,0.1 6.4,0.5 15,0.5 29.9,0 97.7,-5.3 146.3,-49.2 34.7,-31.3 52.4,-75.7 52.8,-132 V 248.1 c 0,-6.9 -5.6,-12.4 -12.5,-12.4 z m 445.2,77.4 C 749.2,268.4 689.4,243.8 625.7,243.8 H 473.3 V 758 h 152.4 c 63.6,0 123.5,-24.6 168.5,-69.3 45,-44.7 69.8,-104 69.8,-167.2 v -41.1 c 0,-63.2 -24.8,-122.6 -69.8,-167.3 z m 44.7,208.4 C 838.9,638.1 743.3,733 625.8,733 H 498.5 V 268.8 h 127.3 c 117.5,0 213.1,94.9 213.1,211.5 z"
     id="path16"
     style="display:inline;stroke:none;stroke-opacity:1;fill:#406eff;fill-opacity:1" /></g></svg>
