<?xml version="1.0" encoding="utf-8"?>
<!-- Svg Vector Icons : http://www.onlinewebfonts.com/icon -->
<!DOCTYPE svg PUBLIC "-//W3C//DTD SVG 1.1//EN" "http://www.w3.org/Graphics/SVG/1.1/DTD/svg11.dtd">
<svg version="1.1" xmlns="http://www.w3.org/2000/svg" xmlns:xlink="http://www.w3.org/1999/xlink" x="0px" y="0px" fill="#406eff" viewBox="0 0 1000 1000" enable-background="new 0 0 1000 1000" xml:space="preserve">
<metadata> Svg Vector Icons : http://www.onlinewebfonts.com/icon </metadata>
<g><path d="M535.1,466L350.2,325.3c-24.5-18.7-44.6-8.7-44.6,22.1v305.2c0,30.8,20.1,40.8,44.6,22.1L535.1,534C559.6,515.3,559.6,484.7,535.1,466z"/><path d="M951.3,406.2c-191.4-183.5-439.1-295-589.7-350.7c-72.4-26.8-151.5,18.6-164.9,94.6c-0.7,3.8-1.3,7.7-2,11.5c139.1,43.1,363.7,128,537.7,266.7c48.7,38.8,47.4,103.8-3.5,140.6c-98.5,71-280.4,184.3-535.1,269.5c0.6,3.5,1.2,7,1.7,10.4c13.1,77.8,94.8,124,168.1,94.6c278-111.5,476.5-260.2,583.8-353.4C1002.8,541.9,1004.2,456.9,951.3,406.2z"/><path d="M194.7,161.5c-1.7-0.5-3.5-1.1-5.2-1.6C122.9,139.5,50,174.2,37.7,232.3c-47.2,222.1-24.6,418.5-1,534.5c12.1,59.5,87.3,94.8,154.8,72.4c0.8-0.3,1.6-0.5,2.4-0.8C169.2,687.6,147.1,440.6,194.7,161.5z"/></g>
</svg>