<?xml version="1.0" encoding="utf-8"?>
<!-- Svg Vector Icons : http://www.onlinewebfonts.com/icon -->
<!DOCTYPE svg PUBLIC "-//W3C//DTD SVG 1.1//EN" "http://www.w3.org/Graphics/SVG/1.1/DTD/svg11.dtd">
<svg version="1.1" xmlns="http://www.w3.org/2000/svg" xmlns:xlink="http://www.w3.org/1999/xlink" x="0px" y="0px" fill="#406eff" viewBox="0 0 1000 1000" enable-background="new 0 0 1000 1000" xml:space="preserve">
<metadata> Svg Vector Icons : http://www.onlinewebfonts.com/icon </metadata>
<g><path d="M225.9,590c356.9,182.3,500.8,16.6,204-49.7c-220-49.1-287.7-219.1-118.4-296.4C425.1,192,685.6,228.1,771.2,279l-9.9,101.1c-340.6-145.5-511.7-7.4-145.7,79.2c163.5,38.6,244,208.1,74.7,285.4c-113.6,51.9-387.9,9.2-473.5-41.7L225.9,590L225.9,590z"/><path d="M882.4,855.2l-28.7-39.5c-1.8-1.3-3.6-2.7-5.3-4.2c-44,51.9-100.4,92.6-164.7,117.2l44.5,61.3c62.5-27.1,118.2-67.2,163.6-117C887.9,867.6,884.7,861.6,882.4,855.2L882.4,855.2z"/><path d="M643,876.6c-44.5,17-92.7,26.4-143,26.4C276.6,903,94.8,719.2,94.8,493.3S276.6,83.7,500,83.7c223.4,0,405.2,183.8,405.2,409.7c0,100.8-36.3,193.2-96.2,264.6l44.2,60.8C930.7,732.8,978,618.5,978,493.3C978,226.8,763.6,10,500,10S22,226.8,22,493.3c0,266.5,214.5,483.3,478,483.3c66.5,0,129.9-13.9,187.5-38.8L643,876.6z"/></g>
</svg>