<?xml version="1.0" encoding="utf-8"?>
<!-- Svg Vector Icons : http://www.onlinewebfonts.com/icon -->
<!DOCTYPE svg PUBLIC "-//W3C//DTD SVG 1.1//EN" "http://www.w3.org/Graphics/SVG/1.1/DTD/svg11.dtd">
<svg version="1.1" xmlns="http://www.w3.org/2000/svg" xmlns:xlink="http://www.w3.org/1999/xlink" width="32px" height="32px" x="0px" y="0px" fill="#9cbebe" viewBox="0 0 1000 1000" enable-background="new 0 0 1000 1000" xml:space="preserve">
<metadata> Svg Vector Icons : http://www.onlinewebfonts.com/icon </metadata>
<g><path d="M945.2,23.8H54.8C30.2,23.8,10,44,10,68.6v665.1c0,24.6,20.2,44.8,44.8,44.8h361.9v134.4H295.9c-24.6,0-44.8,14.2-44.8,31.6c0,17.4,20.2,31.6,44.8,31.6h409.8c24.6,0,44.8-14.2,44.8-31.6c0-17.4-20.2-31.6-44.8-31.6H584.8V778.6h360.3c24.6,0,44.8-20.2,44.8-44.8V68.6C990,44,969.8,23.8,945.2,23.8z M541.7,833.9c0,22.6-18.3,40.9-40.9,40.9s-40.9-18.3-40.9-40.9c0-22.6,18.3-40.9,40.9-40.9S541.7,811.3,541.7,833.9z M932.7,672.5L932.7,672.5c0,24.6-20.2,44.8-44.8,44.8H112.1c-24.6,0-44.8-20.2-44.8-44.8V129.9c0-24.6,20.2-44.8,44.8-44.8h775.8c24.6,0,44.8,20.2,44.8,44.8L932.7,672.5L932.7,672.5z"/><path d="M840,135H161.6c-24.6,0-44.8,20.2-44.8,44.8v442.8c0,24.6,20.2,44.8,44.8,44.8H840c24.6,0,44.8-20.2,44.8-44.8V179.8C884.8,155.2,864.6,135,840,135z"/></g>
</svg>