<?xml version="1.0" encoding="utf-8"?>
<!-- Svg Vector Icons : http://www.onlinewebfonts.com/icon -->
<!DOCTYPE svg PUBLIC "-//W3C//DTD SVG 1.1//EN" "http://www.w3.org/Graphics/SVG/1.1/DTD/svg11.dtd">
<svg version="1.1" xmlns="http://www.w3.org/2000/svg" xmlns:xlink="http://www.w3.org/1999/xlink" x="0px" y="0px" fill="#406eff" viewBox="0 0 1000 1000" enable-background="new 0 0 1000 1000" xml:space="preserve">
<metadata> Svg Vector Icons : http://www.onlinewebfonts.com/icon </metadata>
<g><path d="M500,10C229.4,10,10,229.4,10,500c0,270.6,219.4,490,490,490c270.6,0,490-219.4,490-490C990,229.4,770.6,10,500,10z M274.4,245.6c33.8,0,61.1,24.6,61.1,54.8c0,30.1-27.3,54.7-61.1,54.7s-61.1-24.6-61.1-54.7C213.3,270.2,240.6,245.6,274.4,245.6z M325.3,574.6c-16.1,49.9-12.1,31.4-76.1,170.4l-92.7-57.8c0,0,103.4-94.1,124.7-137c22.4-45.3-24.8-69.5-24.8-69.5l-71-44.3l38.4-59.1c53.6,39.8,57.6,43.1,93.7,79.3C345.3,484.6,341.9,523.5,325.3,574.6z M829.2,639.4C811.1,809,590.5,746,590.5,746l12-48.5l42.4,11c94.5,6,76.6-76.6,76.6-76.6v-240c0-91.1-77-100.6-232.2-45.1l40.5,4.3c-3.1,10.7-10.6,40-25.5,40h191.9v51.9H591.3v53h104.9v25.4H591.3v105.4c0-5.9,35.6-13.7,49.7-24.2l-9.4-38.4l55.5-17.1L733,659.1l-67.5,28.1l-12-44.7c-30.2,23.1-93,56.6-202.6,53.6c-117.1,3-87.1-139.4-87.1-139.4l3-8.9h82.3c-0.5,25.4-7.6,53.1,2.1,68.5c7.9,12.6,23.5,18.5,36.7,19.1c1.5,0.2-0.4,3.9-0.4,3.9v-118H357.3V496h130.2v-53h-20.7c-26.9,26.5-51.4,52.6-51.4,52.6l-36-31.3c25.6-26.9,51.2-69.4,67-97.9c-12.9,5.2-26.1,10.9-39.7,16.9c-13.4,16.8-28.6,34.2-45.7,51.3c0.6,0.9-58.9-33.3-58.9-33.3c61.5-52.6,96-165.1,96-165.1l85.6,23.9c0,0-7.2,16.7-21.7,42.2c342.7-97,362.5,59.5,362.5,59.5S847.2,469.8,829.2,639.4z"/></g>
</svg>