<?xml version="1.0" encoding="UTF-8" standalone="no"?>
<!-- Svg Vector Icons : http://www.onlinewebfonts.com/icon -->

<svg
   version="1.1"
   x="0px"
   y="0px"
   fill="#406eff"
   viewBox="0 0 1000 1000"
   enable-background="new 0 0 1000 1000"
   xml:space="preserve"
   id="svg2875"
   sodipodi:docname="tm.svg"
   inkscape:version="1.2.1 (9c6d41e410, 2022-07-14)"
   xmlns:inkscape="http://www.inkscape.org/namespaces/inkscape"
   xmlns:sodipodi="http://sodipodi.sourceforge.net/DTD/sodipodi-0.dtd"
   xmlns="http://www.w3.org/2000/svg"
   xmlns:svg="http://www.w3.org/2000/svg"><defs
   id="defs2879" /><sodipodi:namedview
   id="namedview2877"
   pagecolor="#ffffff"
   bordercolor="#666666"
   borderopacity="1.0"
   inkscape:showpageshadow="2"
   inkscape:pageopacity="0.0"
   inkscape:pagecheckerboard="0"
   inkscape:deskcolor="#d1d1d1"
   showgrid="false"
   inkscape:zoom="0.829"
   inkscape:cx="500"
   inkscape:cy="500.60314"
   inkscape:window-width="1920"
   inkscape:window-height="1009"
   inkscape:window-x="-8"
   inkscape:window-y="-8"
   inkscape:window-maximized="1"
   inkscape:current-layer="svg2875" />
<metadata
   id="metadata2861"> Svg Vector Icons : http://www.onlinewebfonts.com/icon </metadata>
<g
   id="g2873"><path
     d="M403.4,427.6c-14.5,0-26.4,11.8-26.4,26.4c0,14.5,11.8,26.4,26.4,26.4c14.6,0,26.4-11.8,26.4-26.4C429.7,439.4,418,427.6,403.4,427.6z"
     id="path2863" /><path
     d="M499.2,296.2c-48.2,0-87.4,27.2-89.9,83.1h179.8C586.6,323.4,547.4,296.2,499.2,296.2z"
     id="path2865" /><path
     d="M597.9,427.6c-14.5,0-26.4,11.8-26.4,26.4c0,14.5,11.8,26.4,26.4,26.4c14.6,0,26.4-11.8,26.4-26.4C624.3,439.4,612.5,427.6,597.9,427.6z"
     id="path2867" /><path
     d="M500,10C229.4,10,10,229.4,10,500c0,270.6,219.4,490,490,490s490-219.4,490-490C990,229.4,770.6,10,500,10z M667.9,723.5H332.1c-25.8,0-43.8-23.2-40.4-51l38.7-261.2c2.2-17.9,20.1-32,39.9-32h22.1c2.5-66.7,49.2-102.8,106.7-102.8s104.1,36,106.7,102.8h23.7c19.9,0,37.7,14.2,39.9,32l38.7,261.2C711.7,700.3,693.6,723.5,667.9,723.5z"
     id="path2869" /><path
     d="M669.5,411.3c-2.2-17.9-20.1-32-39.9-32h-23.7c-2.5-66.7-49.3-102.8-106.7-102.8c-57.4,0-104.1,36-106.7,102.8h-22.1c-19.9,0-37.7,14.2-39.9,32l-38.7,261.2c-3.4,27.8,14.6,51,40.4,51h335.7c25.7,0,43.8-23.2,40.3-51L669.5,411.3z M499.2,296.2c48.2,0,87.4,27.2,89.9,83.1H409.3C411.8,323.4,451,296.2,499.2,296.2z M403.4,480.3c-14.5,0-26.4-11.8-26.4-26.4c0-14.6,11.8-26.4,26.4-26.4c14.6,0,26.4,11.8,26.4,26.4C429.7,468.5,418,480.3,403.4,480.3z M597.9,480.3c-14.5,0-26.4-11.8-26.4-26.4c0-14.6,11.8-26.4,26.4-26.4c14.6,0,26.4,11.8,26.4,26.4C624.3,468.5,612.5,480.3,597.9,480.3z"
     id="path2871"
     style="fill:none" /></g>
</svg>
