<?xml version="1.0" encoding="utf-8"?>
<!-- Svg Vector Icons : http://www.onlinewebfonts.com/icon -->
<!DOCTYPE svg PUBLIC "-//W3C//DTD SVG 1.1//EN" "http://www.w3.org/Graphics/SVG/1.1/DTD/svg11.dtd">
<svg version="1.1" xmlns="http://www.w3.org/2000/svg" xmlns:xlink="http://www.w3.org/1999/xlink" x="0px" y="0px" fill="#406eff" viewBox="0 0 1000 1000" enable-background="new 0 0 1000 1000" xml:space="preserve">
<metadata> Svg Vector Icons : http://www.onlinewebfonts.com/icon </metadata>
<g><path d="M500,10C230.5,10,10,230.5,10,500s220.5,490,490,490s490-220.5,490-490S769.5,10,500,10z M713.1,624.9C671.5,710.7,539.2,752.3,438.8,745c-93.1-7.3-215.6-39.2-227.9-151.9c0,0-7.3-51.5,44.1-117.6c0,0,71.1-100.5,156.8-129.9c83.3-29.4,93.1,19.6,93.1,49c-4.9,24.5-12.3,39.2,19.6,29.4c0,0,83.3-39.2,115.2-4.9c26.9,26.9,4.9,66.1,4.9,66.1s-12.3,12.3,12.3,17.2C681.3,504.9,754.8,539.2,713.1,624.9z M715.6,433.9L715.6,433.9c0,2.5,0,2.5,0,2.5l0,0c-2.5,9.8-9.8,17.1-19.6,17.1c-12.3,0-19.6-9.8-19.6-19.6v-2.4l0,0c0-2.5,0-4.9,0-7.4c0-31.8-24.5-56.4-56.3-56.4c-12.3,0-19.6-9.8-19.6-19.6c0-12.3,9.8-19.6,19.6-19.6c53.9,0,98,44.1,98,98C715.6,426.5,715.6,428.9,715.6,433.9L715.6,433.9z M794,448.6c0,2.4,0,4.9,0,4.9l0,0l0,0c-2.5,9.8-12.3,19.6-24.5,19.6c-14.7,0-24.5-9.8-24.5-24.5v-2.5l0,0c2.5-7.3,2.5-14.7,2.5-24.5c0-71.1-56.4-127.4-127.4-127.4c-14.7,0-24.5-9.8-24.5-24.5c0-14.7,9.8-24.5,24.5-24.5c98,0,176.4,78.4,176.4,176.4C796.5,431.4,794,441.2,794,448.6z"/><path d="M448.6,480.4c-98,4.9-178.9,56.4-178.9,122.5c0,66.2,78.4,115.2,178.9,110.3c98-4.9,178.9-66.1,178.9-132.3C624.9,514.7,546.5,475.5,448.6,480.4z M514.7,644.5c-29.4,39.2-90.7,58.8-147,27c-27-14.7-27-44.1-27-44.1s-12.2-93.1,88.2-105.4C527,512.3,544.1,605.3,514.7,644.5z"/></g>
</svg>