<?xml version="1.0" encoding="utf-8"?>
<!-- Svg Vector Icons : http://www.onlinewebfonts.com/icon -->
<!DOCTYPE svg PUBLIC "-//W3C//DTD SVG 1.1//EN" "http://www.w3.org/Graphics/SVG/1.1/DTD/svg11.dtd">
<svg version="1.1" xmlns="http://www.w3.org/2000/svg" xmlns:xlink="http://www.w3.org/1999/xlink" x="0px" y="0px" fill="#406eff" viewBox="0 0 1000 1000" enable-background="new 0 0 1000 1000" xml:space="preserve">
<metadata> Svg Vector Icons : http://www.onlinewebfonts.com/icon </metadata>
<g><path d="M303.5,263.7c6.5,32.4-27.6,24.1-34.1,43.4c46,131.8,105.7,249.9,155.1,378.2c29.2-37,45.7-86.6,68.3-130.2c-37.4-86.7-66.2-181.9-114.8-257.3c-13.4-7.2-37.1-4.3-43.4-18.6c-6.6-29.2,34.4-17.2,49.6-15.5c57.2,3.4,118.8-5.3,167.6,0v15.5c-4,16.7-36.7,4.7-43.4,18.6c10.6,51.4,34.9,89.1,49.6,136.4c22.6-39.5,42.9-81.2,59-127.1c-5.1-19.7-38.9-10.7-46.5-27.9v-9.3c12.5-19.1,67.2-7.1,90-6.2c21.8,2,51.7-4.1,68.3,3.1c5.7,35.7-38.5,21.5-52.8,37.2c-44.4,45.6-64.7,115.2-96.2,173.6c26,65,56.2,125.7,80.7,192.2C709.7,550.7,761.2,433.6,800,304c-12.5-14.4-49.5-4.3-40.3-40.3c36.6-3.9,85.7-0.9,121,0c13.5,27.6-21.5,31.8-34.1,43.4c-63.1,170.5-138.4,328.8-198.6,502.2h-43.4c-27.9-71.3-57.3-141.1-90-207.7c-39.8,65.6-72.9,138-108.6,207.7h-43.4c-69.9-173-140.6-345.2-220.3-508.4c-3.3-11.2-22.6-6.4-24.8-18.6v-21.7C179,265.8,247.2,260.3,303.5,263.7L303.5,263.7z M500,10.1c-270.6,0-490,219.4-490,490c0,270.5,219.4,489.9,490,489.9s490-219.4,490-489.9C989.9,229.4,770.5,10.1,500,10.1L500,10.1z"/></g>
</svg>