<?xml version="1.0" encoding="utf-8"?>
<!-- Svg Vector Icons : http://www.onlinewebfonts.com/icon -->
<!DOCTYPE svg PUBLIC "-//W3C//DTD SVG 1.1//EN" "http://www.w3.org/Graphics/SVG/1.1/DTD/svg11.dtd">
<svg version="1.1" xmlns="http://www.w3.org/2000/svg" xmlns:xlink="http://www.w3.org/1999/xlink" x="0px" y="0px" fill="#406eff" viewBox="0 0 1000 1000" enable-background="new 0 0 1000 1000" xml:space="preserve">
<metadata> Svg Vector Icons : http://www.onlinewebfonts.com/icon </metadata>
<g><path d="M500,990c270.6,0,490-219.4,490-490S770.6,10,500,10S10,229.4,10,500S229.4,990,500,990z M346.4,407.5c19.2-0.3,35.7,3.2,49.6,10.5c13.9,7.3,24.5,17.9,31.8,31.7c7.3,13.8,11.1,30.1,11.4,48.9c0.2,13.9-1.5,26.5-5.1,37.9c-3.7,11.4-9.3,21.4-16.9,29.8c-7.6,8.5-17,15-28.2,19.6c-11.2,4.6-24.1,7-38.6,7.3c-14.5,0.3-27.4-1.8-39-6.1c-11.5-4.3-21.2-10.6-29-18.7s-13.7-17.9-17.9-29.5c-4.1-11.5-6.3-24-6.5-37.5c-0.2-13.8,1.6-26.5,5.5-38.1c3.9-11.6,9.6-21.5,17.2-29.7c7.6-8.2,16.9-14.6,27.9-19S332.3,407.7,346.4,407.5z M401.3,499.6c-0.2-13.1-2.6-24.5-7.2-34.1c-4.5-9.6-10.9-16.7-19.1-21.5c-8.2-4.8-17.5-7.1-28.1-6.9c-7.5,0.1-14.4,1.6-20.7,4.5c-6.3,2.8-11.7,6.9-16.2,12.2c-4.5,5.3-8,12-10.5,20.2c-2.5,8.2-3.7,17.3-3.5,27.4c0.2,10.2,1.7,19.4,4.5,27.6c2.8,8.2,6.7,15,11.6,20.3c4.9,5.3,10.5,9.3,16.9,11.9c6.3,2.6,13.2,3.8,20.7,3.7c9.6-0.2,18.3-2.6,26.3-7.4c7.9-4.8,14.2-12.1,18.8-21.9S401.6,513.8,401.3,499.6z M447.3,516v-86.4c0-7.4,1.7-12.9,5.1-16.5c3.4-3.7,7.9-5.5,13.4-5.5c5.8,0,10.4,1.8,13.8,5.5s5.1,9.2,5.1,16.5v88.3c0,10,1.2,18.4,3.5,25.2c2.3,6.7,6.4,12,12.3,15.7c5.9,3.7,14.1,5.6,24.7,5.6c14.6,0,25-3.8,31-11.3c6.1-7.6,9.1-19,9.1-34.4v-89.1c0-7.4,1.7-13,5-16.6c3.4-3.6,7.9-5.5,13.5-5.5s10.2,1.8,13.7,5.5c3.5,3.6,5.2,9.2,5.2,16.6V516c0,14-1.4,25.8-4.2,35.2c-2.8,9.4-8.1,17.6-16,24.7c-6.7,6-14.5,10.5-23.5,13.2c-8.9,2.8-19.3,4.2-31.3,4.2c-14.2,0-26.4-1.5-36.7-4.5c-10.3-3-18.6-7.6-25.1-13.8s-11.2-14.3-14.3-24C448.8,541.2,447.3,529.5,447.3,516z M651.4,430.9v63l73.5-74.5c3.5-3.6,6.5-6.2,9-8c2.5-1.7,5.8-2.6,9.9-2.6c5.4,0,9.7,1.5,13.1,4.6c3.3,3.1,5,6.8,5,11.2c0,5.3-2.8,10.6-8.4,15.8l-45.5,41.9l52.5,73c3.7,5.1,6.5,9.5,8.3,13.3c1.8,3.8,2.8,7.5,2.8,11.1c0,4-1.6,7.5-4.9,10.4c-3.2,2.9-7.6,4.4-13.2,4.4c-5.2,0-9.5-1.1-12.7-3.2c-3.3-2.2-6.1-5-8.3-8.6c-2.3-3.6-4.3-6.9-6.1-9.8l-44.3-66.2l-30.6,28.5v37.1c0,7.5-1.8,13.1-5.3,16.7c-3.5,3.6-8.1,5.5-13.6,5.5c-3.2,0-6.3-0.8-9.2-2.5c-2.9-1.6-5.2-3.8-6.8-6.6c-1.2-2.3-1.9-4.9-2.1-8c-0.3-3-0.4-7.4-0.4-13.1V430.9c0-7.3,1.7-12.9,5-16.5c3.3-3.7,7.8-5.5,13.6-5.5c5.6,0,10.2,1.8,13.7,5.5C649.7,418,651.4,423.5,651.4,430.9z M769.2,431.3c-0.1-7.3,1.5-12.9,4.8-16.6c3.3-3.7,7.8-5.6,13.3-5.7c5.8-0.1,10.4,1.7,13.9,5.3c3.5,3.6,5.3,9.1,5.4,16.4l1.5,88.3c0.2,10,1.5,18.4,3.9,25.1c2.4,6.7,6.6,11.9,12.6,15.5c5.9,3.6,14.2,5.3,24.8,5.1c14.6-0.3,24.9-4.2,30.8-11.9c5.9-7.7,8.7-19.2,8.5-34.5l-1.6-89c-0.1-7.4,1.5-13,4.8-16.7c3.3-3.7,7.8-5.6,13.4-5.7c5.6-0.1,10.2,1.6,13.8,5.2c3.6,3.6,5.4,9.1,5.5,16.5l1.5,86.3c0.2,14-1,25.8-3.6,35.2c-2.7,9.4-7.8,17.8-15.5,25c-6.6,6.2-14.4,10.7-23.2,13.6c-8.9,2.9-19.3,4.5-31.2,4.7c-14.2,0.2-26.5-1-36.8-3.8c-10.3-2.8-18.8-7.3-25.3-13.4c-6.6-6.1-11.5-14.1-14.7-23.8c-3.2-9.7-4.9-21.3-5.1-34.9L769.2,431.3z M104.4,634.2c-10.2-8.6-4.4-23-4.4-23l47.6-72.4l-55.6-81.5c-4.9-7.7-8.4-13.6-10.5-17.9c-2-4.3-3.1-8-3.1-11.2c0-5.2,2.1-9.7,6.2-13.5c4.2-3.8,9.3-5.7,15.4-5.7c6.4,0,11.3,1.8,14.6,5.3c3.3,3.5,8.3,10.5,14.9,21.1l43.2,68.1l43.7-68.1c2.6-4.2,4.8-7.7,6.6-10.6c1.8-2.9,3.8-5.5,5.9-8s4.5-4.4,7.2-5.7c2.6-1.3,5.8-2,9.6-2c5.9,0,10.8,1.9,14.7,5.6c3.9,3.7,5.9,8,5.9,12.9c0,4-1,8-3,11.9c-2,4-5.4,9.5-10.2,16.5L132.7,631.4C132.7,636.6,114.6,642.7,104.4,634.2z"/></g>
</svg>